<svg xmlns="http://www.w3.org/2000/svg" version="1.1" xmlns:xlink="http://www.w3.org/1999/xlink" width="100%" height="100%" viewBox="0 0 1500 1263" xml:space="preserve" xmlns:serif="http://www.serif.com/" style="fill-rule:evenodd;clip-rule:evenodd;stroke-linejoin:round;stroke-miterlimit:2;"><metadata><rdf:RDF xmlns:rdf="http://www.w3.org/1999/02/22-rdf-syntax-ns#" xmlns:dc="http://purl.org/dc/elements/1.1/"><rdf:Description><dc:creator>RealFaviconGenerator</dc:creator><dc:source>https://realfavicongenerator.net</dc:source></rdf:Description></rdf:RDF></metadata><g id="Primo-piano" serif:id="Primo piano" transform="matrix(4.16667,0,0,4.16667,0,0)">
        <g transform="matrix(1,0,0,1,132.068,260.5)">
            <path d="M0,-168.31C-0.868,-167.804 -1.67,-167.363 -2.437,-166.894C-3.304,-166.366 -4.132,-165.798 -4.959,-165.063L-5.248,-164.807L-4.94,-164.574C-4.818,-164.482 -4.725,-164.335 -4.619,-164.112C-4.504,-163.872 -4.4,-163.607 -4.25,-163.361C-3.902,-162.789 -3.33,-162.33 -2.132,-162.33C-1.555,-162.33 -0.767,-162.444 0.106,-162.607C0.981,-162.771 1.966,-162.991 2.951,-163.209C4.933,-163.65 6.851,-164.074 7.897,-164.074C16.075,-164.074 27.132,-158.703 32.961,-150.067C35.926,-145.646 37.102,-141.494 37.538,-137.523C37.978,-133.523 37.669,-129.712 37.669,-126.017C37.669,-110.445 33.131,-85.381 16.866,-73.477L16.549,-73.245L16.844,-72.984C17.066,-72.788 17.262,-72.593 17.441,-72.407L17.947,-71.866C18.26,-71.53 18.573,-71.211 18.942,-71.009C19.659,-70.616 20.485,-70.703 21.773,-71.375C22.043,-67.571 22.843,-62.692 22.843,-60.608C22.843,-44.83 17.537,-16.966 8.213,-3.415C7.009,-1.664 6.104,-0.119 5.326,1.212C4.94,1.873 4.586,2.48 4.242,3.034C3.903,3.581 3.574,4.074 3.234,4.514C1.913,6.223 0.446,7.102 -2.568,7.102C-3.943,7.102 -5.049,6.614 -7.034,4.402L-7.034,-15.802C-7.048,-21.188 -13.849,-61.796 -26.988,-61.796C-39.043,-61.796 -46.056,-17.244 -46.062,-13.84L-46.062,4.396C-46.929,6.086 -48.504,7.102 -50.536,7.102C-64.977,7.102 -75.078,-44.318 -74.993,-47.849L-74.993,-71.473L-70.589,-70.716C-70.327,-71.009 -70.25,-71.041 -70.229,-71.048C-70.051,-71.093 -69.98,-71.14 -69.923,-71.218C-69.855,-71.312 -69.843,-71.419 -69.838,-71.475L-69.832,-71.731L-69.842,-72.817C-69.842,-74.073 -72.025,-76.401 -74.35,-78.817C-75.545,-80.059 -76.832,-81.372 -78.004,-82.655C-79.175,-83.935 -80.22,-85.173 -80.941,-86.269C-88.629,-97.855 -90.772,-114.699 -90.772,-126.017C-90.772,-143.991 -84.247,-165.818 -60.129,-165.818C-55.715,-165.818 -45.293,-162.684 -41.928,-158.732C-43.175,-158.268 -44.741,-157.444 -46.325,-156.797C-48.093,-156.075 -49.775,-155.627 -51.042,-156.058L-51.642,-156.262L-51.444,-155.66C-51.438,-155.64 -51.431,-155.558 -51.504,-155.384C-51.571,-155.223 -51.688,-155.032 -51.84,-154.828C-52.144,-154.419 -52.559,-154.005 -52.907,-153.741L-53.214,-153.508L-52.926,-153.252C-51.292,-151.8 -50.217,-150.992 -47.919,-150.992C-46.64,-150.992 -45.305,-151.332 -43.923,-151.828C-42.55,-152.321 -41.103,-152.977 -39.577,-153.634C-36.539,-154.942 -33.24,-156.225 -29.604,-156.225C-27.463,-156.225 -20.465,-155.106 -16.475,-153.38C-14.621,-152.586 -12.906,-151.145 -11.227,-149.659C-10.385,-148.915 -9.563,-148.169 -8.748,-147.502C-7.93,-146.831 -7.107,-146.23 -6.275,-145.79L-6.049,-145.671L-5.885,-145.866C-5.768,-146.004 -5.648,-146.074 -5.517,-146.132L-5.29,-146.225C-5.208,-146.259 -5.114,-146.303 -5.022,-146.365C-4.612,-146.643 -4.432,-147.159 -4.432,-148.256C-4.432,-149.499 -5.381,-150.599 -6.445,-151.6C-6.983,-152.106 -7.58,-152.613 -8.159,-153.127C-8.61,-153.528 -9.043,-153.927 -9.427,-154.333C-6.743,-155.331 -4.204,-155.352 -2.132,-155.352C-1.086,-155.352 1.917,-154.711 4.996,-154.051C6.525,-153.724 8.054,-153.396 9.336,-153.151C10.61,-152.907 11.677,-152.736 12.258,-152.736C14.521,-152.736 16.472,-153.514 18.194,-155.172L18.291,-157.862L18.062,-157.929C16.812,-158.289 15.49,-158.176 14.217,-158.055C13.584,-157.995 12.947,-157.931 12.313,-157.915C11.687,-157.899 11.079,-157.932 10.485,-158.06C8.253,-158.605 5.67,-159.391 3.368,-160.04C1.081,-160.687 -0.988,-161.219 -2.132,-161.219C-2.73,-161.219 -3.701,-160.986 -4.811,-160.661C-5.931,-160.333 -7.243,-159.895 -8.556,-159.458C-11.209,-158.574 -13.755,-157.73 -14.778,-157.73C-15.262,-157.73 -15.874,-157.896 -16.6,-158.174C-17.327,-158.454 -18.13,-158.83 -18.974,-159.215C-20.666,-159.989 -22.577,-160.832 -24.383,-161.001C-28.682,-161.431 -32.938,-161.225 -38.361,-161.34C-38.464,-161.866 -38.688,-162.282 -38.987,-162.688C-39.266,-163.069 -39.624,-163.456 -40.032,-163.949C-39.115,-164.576 -38.273,-165.477 -37.481,-166.371C-37.042,-166.867 -36.61,-167.37 -36.18,-167.836C-35.751,-168.3 -35.332,-168.721 -34.913,-169.061C-30.715,-172.506 -22.659,-175.412 -17.831,-175.412C-13.917,-175.412 -3.596,-172.647 0,-168.31" style="fill:rgb(58,186,144);"></path>
        </g>
        <g transform="matrix(1,0,0,1,176.232,176.727)">
            <path d="M0,20.518L0,30.778L-5.13,30.778L-5.13,-10.26C-0.172,-10.26 4.061,-8.754 7.566,-5.746C11.071,-2.753 12.824,0.872 12.824,5.129C12.824,9.387 11.071,13.012 7.566,16.004C6.352,17.047 5.061,17.911 3.693,18.594L12.824,30.778L7.695,30.778L0,20.518ZM0,-4.31L0,14.568C1.436,14.073 2.752,13.345 3.95,12.387C6.446,10.387 7.694,7.968 7.695,5.129C7.695,2.29 6.446,-0.128 3.95,-2.129C2.752,-3.086 1.436,-3.814 0,-4.31" style="fill:rgb(35,31,32);"></path>
        </g>
        <g transform="matrix(1,0,0,1,209.373,207.505)">
            <path d="M0,-41.038L0,-35.908L-7.694,-35.908L-7.694,-30.778L2.565,-30.778L2.565,-25.648L-7.694,-25.648L-7.694,-5.13L0,-5.13L0,0L-12.824,0L-12.824,-25.648L-15.389,-25.648L-15.389,-30.778L-12.824,-30.778L-12.824,-41.038L0,-41.038Z" style="fill:rgb(35,31,32);"></path>
        </g>
        <g transform="matrix(1,0,0,1,234.819,166.467)">
            <path d="M0,41.038C-4.959,41.038 -9.19,39.037 -12.695,35.036C-16.201,31.018 -17.954,26.18 -17.954,20.519C-17.954,14.859 -16.201,10.029 -12.695,6.027C-9.19,2.01 -4.959,0.001 0,0L0,5.13C-3.539,5.13 -6.565,6.635 -9.079,9.643C-11.576,12.637 -12.824,16.262 -12.824,20.519C-12.824,24.776 -11.567,28.402 -9.054,31.394C-7.874,32.83 -6.565,33.926 -5.129,34.677L-5.129,25.648L0,25.648L0,41.038Z" style="fill:rgb(35,31,32);"></path>
        </g>
        <g transform="matrix(1,0,0,1,270.397,201.478)">
            <path d="M0,-28.984C3.505,-24.983 5.258,-20.152 5.258,-14.492C5.258,-8.832 3.505,-3.993 0,0.025C-3.506,4.026 -7.737,6.027 -12.696,6.027C-17.655,6.027 -21.887,4.026 -25.392,0.025C-28.897,-3.993 -30.65,-8.832 -30.65,-14.492C-30.65,-20.152 -28.897,-24.982 -25.392,-28.984C-21.887,-33.002 -17.655,-35.01 -12.696,-35.011C-7.737,-35.011 -3.506,-33.002 0,-28.984M-3.642,-3.591C-1.128,-6.6 0.129,-10.234 0.129,-14.492C0.129,-18.75 -1.128,-22.375 -3.642,-25.368C-6.139,-28.377 -9.156,-29.88 -12.696,-29.881C-16.235,-29.881 -19.262,-28.377 -21.775,-25.368C-24.272,-22.375 -25.521,-18.75 -25.521,-14.492C-25.521,-10.235 -24.272,-6.6 -21.775,-3.591C-19.262,-0.598 -16.235,0.897 -12.696,0.897C-9.156,0.897 -6.139,-0.598 -3.642,-3.591" style="fill:rgb(35,31,32);"></path>
        </g>
        <g transform="matrix(1,0,0,1,285.713,207.505)">
            <path d="M0,-41.038L0,-5.13L7.695,-5.13L7.695,0L-5.13,0L-5.13,-41.038L0,-41.038Z" style="fill:rgb(35,31,32);"></path>
        </g>
        <g transform="matrix(1,0,0,1,306.03,199.811)">
            <path d="M0,-25.65L0,-7.696L5.13,-7.696L5.13,-25.65C5.13,-26.35 4.873,-26.949 4.36,-27.445C3.864,-27.958 3.266,-28.214 2.564,-28.214C1.863,-28.214 1.257,-27.958 0.743,-27.445C0.247,-26.949 0,-26.35 0,-25.65M10.26,-25.65L10.26,-7.696L12.824,-7.696L12.824,-2.566L10.26,-2.566L10.26,7.694L5.13,7.694L5.13,-2.566L0,-2.566L0,7.694L-5.13,7.694L-5.13,-2.566L-7.694,-2.566L-7.694,-7.696L-5.13,-7.696L-5.13,-25.65C-5.13,-27.77 -4.378,-29.582 -2.873,-31.087C-1.368,-32.591 0.443,-33.343 2.564,-33.344C4.685,-33.344 6.497,-32.591 8.002,-31.087C9.507,-29.582 10.259,-27.77 10.26,-25.65" style="fill:rgb(35,31,32);"></path>
        </g>
        <g transform="matrix(1,0,0,1,99.4434,263.386)">
            <path d="M0,-41.038C4.958,-41.038 9.19,-39.028 12.696,-35.011C16.201,-31.01 17.953,-26.179 17.954,-20.519C17.954,-14.859 16.201,-10.02 12.696,-6.002C9.19,-2.001 4.958,0 0,0L0,-41.038ZM5.13,-6.361C6.566,-7.113 7.882,-8.207 9.08,-9.644C11.576,-12.637 12.824,-16.261 12.824,-20.519C12.824,-24.776 11.576,-28.41 9.08,-31.42C7.882,-32.839 6.566,-33.925 5.13,-34.677L5.13,-6.361Z" style="fill:rgb(35,31,32);"></path>
        </g>
        <g transform="matrix(1,0,0,1,123.826,222.348)">
            <path d="M0,7.694L0,2.564C0,1.864 0.248,1.265 0.744,0.769C1.256,0.256 1.863,0 2.565,0C3.265,0 3.864,0.256 4.36,0.769C4.873,1.265 5.129,1.864 5.129,2.564L5.129,5.13L2.565,7.694L0,7.694Z" style="fill:rgb(35,31,32);"></path>
        </g>
        <g transform="matrix(1,0,0,1,160.037,255.692)">
            <path d="M0,-25.65L0,-7.696L5.129,-7.696L5.129,-25.65C5.129,-26.35 4.873,-26.949 4.36,-27.445C3.864,-27.959 3.265,-28.214 2.565,-28.214C1.863,-28.214 1.257,-27.959 0.744,-27.445C0.248,-26.949 0,-26.35 0,-25.65M10.259,-25.65L10.259,-7.696L12.824,-7.696L12.824,-2.566L10.259,-2.566L10.259,7.694L5.129,7.694L5.129,-2.566L0,-2.566L0,7.694L-5.13,7.694L-5.13,-2.566L-7.695,-2.566L-7.695,-7.696L-5.13,-7.696L-5.13,-25.65C-5.13,-27.77 -4.378,-29.582 -2.873,-31.087C-1.368,-32.591 0.444,-33.343 2.565,-33.344C4.685,-33.344 6.497,-32.591 8.002,-31.087C9.507,-29.582 10.259,-27.77 10.259,-25.65" style="fill:rgb(35,31,32);"></path>
        </g>
        <g transform="matrix(1,0,0,1,182.918,232.608)">
            <path d="M0,20.518L0,30.778L-5.129,30.778L-5.129,-10.26C-0.171,-10.26 4.061,-8.755 7.566,-5.747C11.071,-2.753 12.824,0.872 12.825,5.128C12.825,9.386 11.071,13.012 7.566,16.003C6.353,17.047 5.062,17.911 3.693,18.594L12.825,30.778L7.695,30.778L0,20.518ZM0,-4.31L0,14.568C1.437,14.072 2.753,13.345 3.95,12.387C6.446,10.387 7.694,7.968 7.695,5.128C7.695,2.29 6.446,-0.128 3.95,-2.129C2.753,-3.086 1.437,-3.814 0,-4.31" style="fill:rgb(35,31,32);"></path>
        </g>
        <g transform="matrix(1,0,0,1,216.06,263.386)">
            <path d="M0,-41.038L0,-35.908L-5.13,-35.908L-5.13,0L-10.26,0L-10.26,-35.908L-15.39,-35.908L-15.39,-41.038L0,-41.038Z" style="fill:rgb(35,31,32);"></path>
        </g>
        <g transform="matrix(1,0,0,1,236.377,263.386)">
            <path d="M0,-41.038L0,-35.908L-7.695,-35.908L-7.695,-30.778L2.564,-30.778L2.564,-25.649L-7.695,-25.649L-7.695,-5.13L0,-5.13L0,0L-12.825,0L-12.825,-25.649L-15.39,-25.649L-15.39,-30.778L-12.825,-30.778L-12.825,-41.038L0,-41.038Z" style="fill:rgb(35,31,32);"></path>
        </g>
        <g transform="matrix(1,0,0,1,40.3975,39.9656)">
            <path d="M0,15.156C0,15.156 2.272,18.031 6.413,18.031C10.209,18.031 12.539,15.472 12.539,12.452C12.539,5.781 2.56,6.931 2.56,2.243C2.56,0.518 4.083,-1.006 6.701,-1.006C8.57,-1.006 10.238,-0.115 10.238,1.093L10.238,2.042L12.136,2.042L12.136,0.605C12.136,-2.041 8.627,-2.875 6.672,-2.875C2.934,-2.875 0.489,-0.517 0.489,2.301C0.489,8.571 10.468,7.564 10.468,12.568C10.468,14.725 8.685,16.163 6.47,16.163C3.278,16.163 1.237,13.689 1.237,13.689L0,15.156Z" style="fill:rgb(35,31,32);"></path>
        </g>
        <g transform="matrix(1,0,0,1,62.1382,37.4353)">
            <path d="M0,20.217L2.013,20.217L2.013,1.783L6.989,1.783C7.42,1.783 7.621,1.956 7.621,2.416L7.621,3.767L9.49,3.767L9.49,1.639C9.49,0.403 9.088,0 7.851,0L-5.837,0C-7.074,0 -7.477,0.403 -7.477,1.639L-7.477,3.767L-5.637,3.767L-5.637,2.416C-5.637,1.956 -5.406,1.783 -5.004,1.783L0,1.783L0,20.217Z" style="fill:rgb(35,31,32);"></path>
        </g>
        <g transform="matrix(1,0,0,1,74.9067,44.7097)">
            <path d="M0,6.012C0,10.383 3.02,13.287 7.477,13.287C11.935,13.287 14.926,10.383 14.926,6.012L14.926,-4.859C14.926,-5.29 15.156,-5.491 15.559,-5.491L16.795,-5.491L16.795,-7.275L14.667,-7.275C13.43,-7.275 12.913,-6.757 12.913,-5.52L12.913,5.868C12.913,9.29 10.756,11.39 7.449,11.39C4.141,11.39 2.014,9.29 2.014,5.926L2.014,-5.52C2.014,-6.757 1.496,-7.275 0.259,-7.275L-1.869,-7.275L-1.869,-5.491L-0.633,-5.491C-0.23,-5.491 0,-5.29 0,-4.859L0,6.012Z" style="fill:rgb(35,31,32);"></path>
        </g>
        <g transform="matrix(1,0,0,1,97.7695,39.8508)">
            <path d="M0,15.386L0,-0.633L4.026,-0.633C8.973,-0.633 12.28,2.301 12.28,7.678C12.28,13.085 9.001,16.019 4.026,16.019L0.633,16.019C0.23,16.019 0,15.817 0,15.386M-2.013,16.047C-2.013,17.283 -1.495,17.802 -0.259,17.802L4.228,17.802C10.324,17.802 14.379,14.12 14.379,7.678C14.379,1.294 10.324,-2.416 4.228,-2.416L-3.882,-2.416L-3.882,-0.633L-2.013,-0.633L-2.013,16.047Z" style="fill:rgb(35,31,32);"></path>
        </g>
        <g transform="matrix(1,0,0,1,114.565,37.4353)">
            <path d="M0,20.217L5.78,20.217L5.78,18.434L3.853,18.434L3.853,1.783L5.78,1.783L5.78,0L0,0L0,1.783L1.898,1.783L1.898,18.434L0,18.434L0,20.217Z" style="fill:rgb(35,31,32);"></path>
        </g>
        <g transform="matrix(1,0,0,1,124.859,47.6731)">
            <path d="M0,-0.259C0,-5.032 3.653,-8.685 8.196,-8.685C12.711,-8.685 16.393,-5.032 16.393,-0.259C16.393,4.63 12.711,8.427 8.196,8.427C3.653,8.427 0,4.63 0,-0.259M-2.099,-0.259C-2.099,5.666 2.445,10.324 8.196,10.324C13.919,10.324 18.492,5.666 18.492,-0.259C18.492,-6.068 13.919,-10.583 8.196,-10.583C2.445,-10.583 -2.099,-6.068 -2.099,-0.259" style="fill:rgb(35,31,32);"></path>
        </g>
        <g transform="matrix(1,0,0,1,157.327,39.8508)">
            <path d="M0,15.386L0,-0.633L4.026,-0.633C8.972,-0.633 12.28,2.301 12.28,7.678C12.28,13.085 9.001,16.019 4.026,16.019L0.633,16.019C0.23,16.019 0,15.817 0,15.386M-2.013,16.047C-2.013,17.283 -1.496,17.802 -0.259,17.802L4.228,17.802C10.324,17.802 14.379,14.12 14.379,7.678C14.379,1.294 10.324,-2.416 4.228,-2.416L-3.882,-2.416L-3.882,-0.633L-2.013,-0.633L-2.013,16.047Z" style="fill:rgb(35,31,32);"></path>
        </g>
        <g transform="matrix(1,0,0,1,175.876,39.1889)">
            <path d="M0,16.709C0,17.945 0.518,18.463 1.754,18.463L10.497,18.463C11.733,18.463 12.251,17.945 12.251,16.709L12.251,14.696L10.382,14.696L10.382,16.048C10.382,16.479 10.151,16.681 9.749,16.681L2.646,16.681C2.243,16.681 2.013,16.479 2.013,16.048L2.013,9.174L9.605,9.174L9.605,7.392L2.013,7.392L2.013,0.029L8.915,0.029C9.317,0.029 9.548,0.23 9.548,0.662L9.548,2.014L11.446,2.014L11.446,0.001C11.446,-1.236 10.928,-1.754 9.691,-1.754L-1.869,-1.754L-1.869,0.029L0,0.029L0,16.709Z" style="fill:rgb(35,31,32);"></path>
        </g>
        <g transform="matrix(1,0,0,1,190.054,37.4353)">
            <path d="M0,20.217L2.128,20.217C3.364,20.217 3.883,19.699 3.883,18.463L3.883,5.809C3.883,4.745 3.71,3.192 3.71,3.192L3.768,3.192C3.768,3.192 4.716,4.831 5.436,5.809L15.76,20.217L17.601,20.217L17.601,2.416C17.601,1.984 17.83,1.783 18.232,1.783L19.469,1.783L19.469,0L17.341,0C16.104,0 15.587,0.518 15.587,1.754L15.587,14.408C15.587,15.472 15.73,17.053 15.73,17.053L15.674,17.053C15.674,17.053 14.725,15.414 14.034,14.408L3.71,0L1.869,0L1.869,17.801C1.869,18.233 1.64,18.434 1.236,18.434L0,18.434L0,20.217Z" style="fill:rgb(35,31,32);"></path>
        </g>
        <g transform="matrix(1,0,0,1,218.61,37.4353)">
            <path d="M0,20.217L2.014,20.217L2.014,1.783L6.988,1.783C7.42,1.783 7.621,1.956 7.621,2.416L7.621,3.767L9.49,3.767L9.49,1.639C9.49,0.403 9.088,0 7.852,0L-5.838,0C-7.074,0 -7.478,0.403 -7.478,1.639L-7.478,3.767L-5.637,3.767L-5.637,2.416C-5.637,1.956 -5.406,1.783 -5.004,1.783L0,1.783L0,20.217Z" style="fill:rgb(35,31,32);"></path>
        </g>
        <g transform="matrix(1,0,0,1,229.855,37.4353)">
            <path d="M0,20.217L5.78,20.217L5.78,18.434L3.854,18.434L3.854,1.783L5.78,1.783L5.78,0L0,0L0,1.783L1.898,1.783L1.898,18.434L0,18.434L0,20.217Z" style="fill:rgb(35,31,32);"></path>
        </g>
        <g transform="matrix(1,0,0,1,238.023,39.9656)">
            <path d="M0,15.156C0,15.156 2.271,18.031 6.412,18.031C10.209,18.031 12.538,15.472 12.538,12.452C12.538,5.781 2.56,6.931 2.56,2.243C2.56,0.518 4.083,-1.006 6.7,-1.006C8.57,-1.006 10.237,-0.115 10.237,1.093L10.237,2.042L12.136,2.042L12.136,0.605C12.136,-2.041 8.627,-2.875 6.672,-2.875C2.934,-2.875 0.488,-0.517 0.488,2.301C0.488,8.571 10.468,7.564 10.468,12.568C10.468,14.725 8.685,16.163 6.47,16.163C3.278,16.163 1.236,13.689 1.236,13.689L0,15.156Z" style="fill:rgb(35,31,32);"></path>
        </g>
        <g transform="matrix(1,0,0,1,259.763,37.4353)">
            <path d="M0,20.217L2.014,20.217L2.014,1.783L6.989,1.783C7.42,1.783 7.621,1.956 7.621,2.416L7.621,3.767L9.49,3.767L9.49,1.639C9.49,0.403 9.088,0 7.852,0L-5.837,0C-7.074,0 -7.477,0.403 -7.477,1.639L-7.477,3.767L-5.637,3.767L-5.637,2.416C-5.637,1.956 -5.406,1.783 -5.004,1.783L0,1.783L0,20.217Z" style="fill:rgb(35,31,32);"></path>
        </g>
        <g transform="matrix(1,0,0,1,271.008,37.4353)">
            <path d="M0,20.217L5.779,20.217L5.779,18.434L3.853,18.434L3.853,1.783L5.779,1.783L5.779,0L0,0L0,1.783L1.897,1.783L1.897,18.434L0,18.434L0,20.217Z" style="fill:rgb(35,31,32);"></path>
        </g>
        <g transform="matrix(1,0,0,1,279.203,47.7017)">
            <path d="M0,-0.316C0,5.58 4.17,10.295 10.095,10.295C15.099,10.295 17.888,7.017 17.888,7.017L16.737,5.551C16.737,5.551 14.293,8.398 10.123,8.398C5.521,8.398 2.1,4.516 2.1,-0.316C2.1,-5.205 5.551,-8.713 10.037,-8.713C12.366,-8.713 15.645,-7.678 15.645,-5.78L15.645,-4.658L17.543,-4.658L17.543,-6.326C17.543,-9.375 12.855,-10.611 9.979,-10.611C4.285,-10.611 0,-6.154 0,-0.316" style="fill:rgb(35,31,32);"></path>
        </g>
        <g transform="matrix(1,0,0,1,301.261,47.6731)">
            <path d="M0,-0.259C0,-5.032 3.652,-8.685 8.196,-8.685C12.711,-8.685 16.392,-5.032 16.392,-0.259C16.392,4.63 12.711,8.427 8.196,8.427C3.652,8.427 0,4.63 0,-0.259M-2.1,-0.259C-2.1,5.666 2.444,10.324 8.196,10.324C13.919,10.324 18.491,5.666 18.491,-0.259C18.491,-6.068 13.919,-10.583 8.196,-10.583C2.444,-10.583 -2.1,-6.068 -2.1,-0.259" style="fill:rgb(35,31,32);"></path>
        </g>
    </g></svg>